<?xml version="1.0" encoding="utf-8"?>
<!-- Generator: Adobe Illustrator 25.3.0, SVG Export Plug-In . SVG Version: 6.00 Build 0)  -->
<svg version="1.1" id="Capa_1" xmlns="http://www.w3.org/2000/svg" xmlns:xlink="http://www.w3.org/1999/xlink" x="0px" y="0px"
	 viewBox="0 0 95.3 42" style="enable-background:new 0 0 95.3 42;" xml:space="preserve">
<style type="text/css">
	.st0{clip-path:url(#SVGID_2_);fill:#00B936;}
	.st1{fill:#57A8E5;}
</style>
<g>
	<g>
		<g>
			<defs>
				<path id="SVGID_1_" d="M44,35c0.7-0.4,1.5-0.8,2.4-1.3c0,0.1,0,0.1,0,0.2c0,0.5,0.1,1,0.2,1.5L44,35z M48.9,33.8
					c0-1.2,0.5-1.9,0.9-1.9c0.3,0,0.9,0.7,0.9,1.8c0,1.2-0.5,1.9-0.9,1.9l0,0C49.5,35.7,49,35,48.9,33.8 M52.2,30.6
					c0.1-0.1,0.2-0.1,0.3-0.2c0,0.2,0,0.4,0.1,0.6C52.4,30.9,52.3,30.7,52.2,30.6 M55,30.3c0-0.6,0.1-1,0.2-1.4
					c0.5-0.2,0.9-0.5,1.4-0.7c0.4,0.3,0.8,1.1,0.8,2.1c0,1.4-0.7,2.3-1.2,2.3l0,0C55.8,32.6,55.1,31.7,55,30.3 M59.3,27.4L59.3,27.4
					L59.3,27.4L59.3,27.4L59.3,27.4 M59.4,27.4L59.4,27.4 M59.5,27.3L59.5,27.3L59.5,27.3 M59.5,27.3L59.5,27.3L59.5,27.3
					 M59.6,27.3C59.6,27.3,59.5,27.3,59.6,27.3C59.5,27.3,59.6,27.3,59.6,27.3 M59.7,27.3C59.6,27.3,59.6,27.3,59.7,27.3
					C59.6,27.3,59.6,27.3,59.7,27.3 M46.3,7.7c2.6-0.1,6.2,0.2,8.8,2.1c2,1.4,3.7,2.5,5,3.5l-6,0.1L46.3,7.7z M8.8,7.6
					c3.6-0.1,5,0.7,6.6,3.7c3.1,5.7,7.8,5.8,8.1,5.8l56.9-1.2c1.1,0,3.3,0.1,4.3,0.6c0.2,0.1,0.4,0.1,0.6,0.2
					c-3.8,1.6-3.1,3.2-3.1,3.2l7.5-0.2c0.3,0,0.5,0.5,0.7,0.6c1.3,0.6,1.9,1.3,1.8,1.7c0,0.1-0.1,1.4-4.3,3.3
					c-2.8,0.8-18.3,1.7-28.2,2c-0.1,0-0.1,0-0.2,0c-0.1,0-0.2,0-0.4,0c-0.1-0.1-0.2-0.3-0.3-0.4c3.4-1.9,6.1-3.3,6.4-3.5
					c0.7-0.4,1-1.3,0.6-2s-1.3-1-2-0.6c-0.1,0-4.1,2.3-8.9,4.9c-0.1,0.1-0.3,0.1-0.4,0.2c-6.1,3.3-13.2,7.2-15.1,8.1
					c-1.4,0.7-3.6,1-5.6,1.2L49.2,23c0.6-0.5,0.8-1.5,0.2-2.1c-0.5-0.6-1.5-0.8-2.1-0.2l-8.6,6.8c-5.7-0.3-10.4-0.9-14-1.7
					c2-1.1,3.7-1.9,3.9-2c0.7-0.4,1-1.3,0.6-2s-1.3-1-2-0.6c-2.6,1.4-9.7,5.1-11.4,5.7c-0.7,0.3-2.1,0.3-3.6,0.3l6-4.7
					c0.7-0.5,0.8-1.5,0.3-2.1C18,19.6,17,19.5,16.4,20l-0.5,0.4C14.7,18.3,11.3,12.5,8.8,7.6 M6.4,4.8c-0.5,0-1,0.3-1.2,0.7
					c-0.2,0.4-0.3,1,0,1.4c2.7,5.5,7.3,13.5,8.4,15.3l-6.3,4.9c-0.5,0.4-0.7,1-0.5,1.6s0.7,1,1.3,1.1c0.4,0,2.8,0.3,5.1,0.2
					c1.4,0,2.7-0.2,3.6-0.5c0.8-0.3,2.3-1,4-1.9c3.5,1.2,8.4,2,14.4,2.5l-6.8,5.4c-0.5,0.4-0.7,1-0.5,1.6s0.7,1,1.3,1
					c0.1,0,1.2,0.1,2.6,0c2.6-0.1,6.4-0.4,8.8-1.6c0.1-0.1,0.3-0.2,0.5-0.2l7.4,1.5c0.4,0.2,0.8,0.3,1.3,0.3c1.7,0,3.1-1.6,3.3-3.8
					l1.7,0.4c0.4,0.2,0.9,0.3,1.4,0.3c2.1,0,3.7-1.9,3.7-4.9l0,0c2.8-0.1,25.3-1,29-2.2c0.1,0,0.1,0,0.2-0.1c4.1-1.9,6.1-3.8,6.1-6
					c0-1.7-1.2-3.3-3.6-4.4c-0.3-0.1-1-0.7-1.6-1.2c-1.2-0.9-2.7-2-4.1-2.7c-2-1-5.3-0.9-5.7-0.9L65,12.9c-0.5,0-3.6-2.5-8.4-5.9
					C51,3.2,42.4,5.1,42,5.2c-0.6,0.1-1,0.6-1.1,1.2s0.1,1.2,0.6,1.5l7.7,5.6L23.5,14c-0.3,0-3.3-0.3-5.4-4.2
					c-2.3-4.2-4.8-5.2-8.9-5.2C8.3,4.6,7.3,4.7,6.4,4.8"/>
			</defs>
			<clipPath id="SVGID_2_">
				<use xlink:href="#SVGID_1_"  style="overflow:visible;"/>
			</clipPath>
			<polygon class="st0" points="4.1,3.2 95.3,1.3 96.1,38.3 4.9,40.3 			"/>
		</g>
	</g>
</g>
<path class="st1" d="M3.2,23.6h4c0.6,0,1,0.4,1,1s-0.4,1-1,1h-4c-0.6,0-1-0.4-1-1C2.2,24.1,2.7,23.6,3.2,23.6"/>
<path class="st1" d="M35,8.5h4c0.6,0,1,0.4,1,1s-0.4,1-1,1h-4c-0.6,0-1-0.4-1-1C34,9,34.5,8.5,35,8.5"/>
<path class="st1" d="M24.8,31.3h4c0.6,0,1,0.4,1,1s-0.4,1-1,1h-4c-0.6,0-1-0.4-1-1C23.8,31.8,24.3,31.3,24.8,31.3"/>
<path class="st1" d="M3.5,15.3h4c0.6,0,1,0.4,1,1c0,0.6-0.4,1-1,1h-4c-0.6,0-1-0.4-1-1C2.5,15.8,3,15.3,3.5,15.3"/>
<path class="st1" d="M2.5,20h7c1,0,1.7,0.4,1.7,1s-0.7,1-1.7,1h-7c-1,0-1.7-0.4-1.7-1C0.7,20.5,1.6,20,2.5,20"/>
</svg>
