<?xml version="1.0" encoding="utf-8"?>
<!-- Generator: Adobe Illustrator 25.3.0, SVG Export Plug-In . SVG Version: 6.00 Build 0)  -->
<svg version="1.1" id="Capa_1" xmlns="http://www.w3.org/2000/svg" xmlns:xlink="http://www.w3.org/1999/xlink" x="0px" y="0px"
	 viewBox="0 0 96.8 54" style="enable-background:new 0 0 96.8 54;" xml:space="preserve">
<style type="text/css">
	.st0{clip-path:url(#SVGID_2_);fill:#00B936;}
	.st1{fill:#57A8E5;}
</style>
<g>
	<g>
		<defs>
			<path id="SVGID_1_" d="M32.1,38.7c0.3,1.3,0.2,2.5,0,3.8c12,0,24.5,0,36.8,0c-0.3-1.3-0.1-2.5,0-3.7
				C56.6,38.7,44.1,38.7,32.1,38.7 M73.4,40.6c0-3.1,2.5-5.6,5.6-5.6c3.1,0,5.6,2.5,5.6,5.6s-2.5,5.6-5.6,5.6
				C75.9,46.2,73.4,43.8,73.4,40.6 M69.7,40.6c0,5.1,4.2,9.3,9.3,9.3s9.3-4.2,9.3-9.3c0-5.1-4.2-9.3-9.3-9.3S69.7,35.5,69.7,40.6
				 M16.5,40.6c0-3.1,2.5-5.6,5.6-5.6c3.1,0,5.6,2.5,5.6,5.6c0,3.1-2.5,5.6-5.6,5.6C18.9,46.1,16.5,43.7,16.5,40.6 M12.7,40.6
				c0,5.1,4.2,9.3,9.3,9.3s9.3-4.2,9.3-9.3s-4.2-9.3-9.3-9.3S12.7,35.4,12.7,40.6 M15.5,16.3h5.6v5.6h-5.6V16.3z M15.2,12.6
				c-1.6,0-3.4,0.7-3.4,2.3v8.5c0.3,1.9,1.9,2.2,3.4,2.3h6.2c1.6,0,3.4-0.7,3.4-2.3v-8.5c-0.3-1.9-1.9-2.2-3.4-2.3
				C21.4,12.6,15.2,12.6,15.2,12.6z M30.4,16.3H36v5.6h-5.6C30.4,21.9,30.4,16.3,30.4,16.3z M30.2,12.6c-1.6,0-3.4,0.7-3.4,2.3v8.5
				c0.3,1.9,1.9,2.2,3.4,2.3h6.2c1.6,0,3.4-0.8,3.4-2.3v-8.5c-0.3-1.9-1.9-2.2-3.4-2.3C36.4,12.6,30.2,12.6,30.2,12.6z M45.4,16.3
				H51v5.6h-5.6V16.3z M45.1,12.6c-1.6,0-3.4,0.7-3.4,2.3v8.5c0.3,1.9,1.9,2.2,3.4,2.3h6.2c1.6,0,3.4-0.7,3.4-2.3v-8.5
				c-0.3-1.9-1.9-2.2-3.4-2.3C51.3,12.6,45.1,12.6,45.1,12.6z M60.3,16.3H66v5.6h-5.6C60.3,21.9,60.3,16.3,60.3,16.3z M60.1,12.6
				c-1.6,0-3.4,0.7-3.4,2.3v8.5c0.3,1.9,1.9,2.2,3.4,2.3h6.2c1.6,0,3.4-0.7,3.4-2.3v-8.5c-0.3-1.9-1.9-2.2-3.4-2.3
				C66.3,12.6,60.1,12.6,60.1,12.6z M75.3,16.3h4.6l3.4,5.6h-7.9V16.3z M80.9,12.6h-7.7c-0.9,0.1-1.7,0.9-1.7,1.9v9.3
				c0,1,0.9,1.9,1.9,1.9h13.1c1.3,0,2.3-1.7,1.6-2.8l-5.6-9.3C82.2,12.9,81.6,12.6,80.9,12.6C80.9,12.6,80.9,12.6,80.9,12.6 M15.4,7
				h-1.7c-2.1,0-3.9,1.1-5.2,2.5s-2.2,3.1-2.3,4.9v26.2c0,1,0.9,1.9,1.9,1.9H12c-0.3-1.3-0.2-2.5,0-3.7c-0.3,0-0.7,0-1,0
				c-0.4,0-0.7,0-1,0V14.4c0-0.5,0.5-1.6,1.3-2.4c0.8-0.8,1.8-1.3,2.5-1.3h70.8c2.1,4.4,4.3,8,6.1,12.3c0.4,0.9,0.6,1.8,0.6,1.9
				c0,4,0,8.7-0.1,13.8c-0.7,0-1.4,0-2,0c0.3,1.3,0.2,2.5,0,3.7h3.9c1,0,1.9-0.9,1.9-1.8c1,0,1.9-0.9,1.9-1.9v-1.9
				c0-1-0.9-1.9-1.8-1.9c0-3.5,0-7.2,0-10.1c0-1.2-0.4-2-0.9-3.3c-2-4.6-4.5-9.2-6.7-13.6c-0.3-0.6-1-1-1.7-1H41.5
				c-0.3-0.5-0.9-0.9-1.5-0.9c-7.6-0.2-15.3-0.7-22.8-0.9C16.2,5.2,15.4,6,15.4,7"/>
		</defs>
		<clipPath id="SVGID_2_">
			<use xlink:href="#SVGID_1_"  style="overflow:visible;"/>
		</clipPath>
		<rect x="6.1" y="5.1" class="st0" width="90.7" height="44.9"/>
	</g>
</g>
<path class="st1" d="M36.5,46h28.2c0.6,0,1,0.4,1,1c0,0.6-0.4,1-1,1H36.5c-0.6,0-1-0.4-1-1C35.5,46.5,36,46,36.5,46"/>
<path class="st1" d="M90.7,46h4.3c0.6,0,1,0.4,1,1c0,0.6-0.4,1-1,1h-4.3c-0.6,0-1-0.4-1-1C89.7,46.5,90.2,46,90.7,46"/>
<path class="st1" d="M7.1,46h4c0.6,0,1,0.4,1,1c0,0.6-0.4,1-1,1h-4c-0.6,0-1-0.4-1-1C6.1,46.5,6.6,46,7.1,46"/>
</svg>
