<svg xmlns="http://www.w3.org/2000/svg" viewBox="0 0 347.37 173.63"><defs><style>.cls-1{fill:#7db17a;}.cls-2{fill:#3d9f95;}.cls-11,.cls-13,.cls-15,.cls-3,.cls-4,.cls-6{fill:#fff;}.cls-13,.cls-4,.cls-6{font-size:17.51px;font-family:Montserrat-Medium, Montserrat;font-weight:500;}.cls-14,.cls-4{letter-spacing:0.09em;}.cls-5{letter-spacing:0.08em;}.cls-6{letter-spacing:0.28em;}.cls-7{letter-spacing:0.28em;}.cls-8{letter-spacing:0.26em;}.cls-9{letter-spacing:0.28em;}.cls-10{letter-spacing:0.27em;}.cls-11,.cls-15{font-size:19.9px;font-family:Montserrat-Bold, Montserrat;font-weight:700;}.cls-11{letter-spacing:-0.03em;}.cls-12{letter-spacing:0.02em;}.cls-13{letter-spacing:0.09em;}.cls-15{letter-spacing:0.02em;}.cls-16{letter-spacing:0.02em;}.cls-17{letter-spacing:0.01em;}.cls-18{fill:#c0cd36;}</style></defs><title>Recurso 1ldpi</title><g id="Capa_2" data-name="Capa 2"><g id="Capa_1-2" data-name="Capa 1"><path class="cls-1" d="M158.91,123.07A82.54,82.54,0,0,1,11.81,48.16l.26-.48A86.27,86.27,0,0,0,.69,102.49a80.89,80.89,0,0,0,93.76,70.06c34.43-5.56,61.28-31.38,70-63.41A82,82,0,0,1,158.91,123.07Z"/><path class="cls-2" d="M122.81,12.07a82.57,82.57,0,0,1,43.35,90.48,86.16,86.16,0,0,0,3.24-34C164.55,23.24,124.3-6.84,79.51,1.34A85.62,85.62,0,0,0,62.68,6.26,82.25,82.25,0,0,1,122.81,12.07Z"/><path class="cls-3" d="M47.59,111.8H36.07l-2.14,5.29H26.07l12-27.23h7.59l12.06,27.23h-8Zm-2.26-5.68-3.5-8.71-3.5,8.71Z"/><path class="cls-3" d="M85.83,89.86v27.23H79.49l-12-14.51v14.51H59.92V89.86h6.34l12,14.51V89.86Z"/><path class="cls-3" d="M115.82,99.94c0,6.18-4.67,10-12.1,10H99v7.12h-7.7V89.86h12.44C111.15,89.86,115.82,93.71,115.82,99.94Zm-7.78,0c0-2.53-1.59-4-4.78-4H99v8h4.28C106.45,103.9,108,102.43,108,99.94Z"/><path class="cls-3" d="M131.46,109.86h-4.2v7.23h-7.7V89.86H132c7.43,0,12.09,3.85,12.09,10.08a9,9,0,0,1-5.33,8.59l5.88,8.56H136.4Zm.08-13.93h-4.28v8h4.28c3.19,0,4.78-1.47,4.78-4S134.73,95.93,131.54,95.93Z"/><path class="cls-3" d="M62.52,136.44l0-6.61-3.24,5.44H58.12L54.89,130v6.47H52.5v-11h2.11l4.12,6.84,4.06-6.84h2.09l0,11Z"/><path class="cls-3" d="M76.36,134.39v2.05H67.83v-11h8.32v2H70.37v2.39h5.11v2H70.37v2.54Zm-3.87-9.86H70.57l2.12-2.26h2.65Z"/><path class="cls-3" d="M85.53,136.44l-2.66-3.82-2.61,3.82H77.33l4.08-5.6-3.87-5.41h2.89L83,129l2.49-3.57H88.2l-3.84,5.31,4.11,5.7Z"/><path class="cls-3" d="M89.79,125.43h2.55v11H89.79Z"/><path class="cls-3" d="M94.57,130.93a6.06,6.06,0,0,1,10.5-3.74l-1.63,1.51a3.55,3.55,0,0,0-2.77-1.29,3.53,3.53,0,0,0,0,7.05,3.5,3.5,0,0,0,2.77-1.31l1.63,1.51a6,6,0,0,1-10.5-3.73Z"/><path class="cls-3" d="M106.17,130.93a6,6,0,1,1,6,5.7A5.7,5.7,0,0,1,106.17,130.93Zm9.47,0a3.45,3.45,0,1,0-3.44,3.53A3.36,3.36,0,0,0,115.64,130.93Z"/><text class="cls-4" transform="translate(199.66 46.73)">ASOCI<tspan class="cls-5" x="64.19" y="0">A</tspan><tspan x="78.37" y="0">CIÓN</tspan></text><text class="cls-6" transform="translate(199.64 134.98)">DE M<tspan class="cls-7" x="67.45" y="0">É</tspan><tspan class="cls-8" x="83.99" y="0">X</tspan><tspan class="cls-9" x="100.33" y="0">I</tspan><tspan class="cls-10" x="110.71" y="0">C</tspan><tspan class="cls-9" x="128.07" y="0">O</tspan></text><text class="cls-11" transform="translate(199.64 89.34)">P<tspan class="cls-12" x="14.07" y="0">ARQUES Y </tspan></text><text class="cls-13" transform="translate(199.64 67.02)">N<tspan class="cls-5" x="15.76" y="0">A</tspan><tspan class="cls-14" x="29.94" y="0">CIONAL DE</tspan></text><text class="cls-15" transform="translate(199.64 113.36)">R<tspan class="cls-16" x="15.02" y="0">E</tspan><tspan x="28.73" y="0">CRE</tspan><tspan class="cls-17" x="72.49" y="0">A</tspan><tspan class="cls-12" x="87.93" y="0">CIÓN</tspan></text><path class="cls-18" d="M100.26,76.93C62.65,81.3,59.17,50.76,49.7,29.69,44.59,18.3,35.24,10.52,23.52,6.46,38.57,3,79.29,12.63,94,29.12c24.2,27.14,6.81,38.64,26.24,50.73-7.71-.15-12.45-2.25-17.27-7C90.57,60.59,92.12,44.53,71.61,31.1,87,44,87.1,67.37,100.26,76.93Z"/><path class="cls-18" d="M118.24,72.44c2.93,4.13,12.41,7.62,21.42,2.11,6.86-4.21,8.86-12.7,9.76-21.47-16.32.41-25.16,8.41-23.87,16.49,5.68,1.64,12.78-5.18,16-7.81C140.39,66.54,130.71,76.26,118.24,72.44Z"/><path class="cls-18" d="M22.16,8.27s11,3.88,16.37,17.52c4.39,11.07-.24,16.53,10,24-13.8-4.85-18.83-20.93-20.64-26-.58,1.75.37,11.1,6,17.43C21.33,36.42,20,28.26,22.16,8.27Z"/></g></g></svg>