<svg xmlns="http://www.w3.org/2000/svg" xmlns:xlink="http://www.w3.org/1999/xlink" viewBox="0 0 472.36 266.86"><defs><style>.cls-1{fill:#fff;}.cls-2{fill:#7abc90;}.cls-3{fill:#00a392;}.cls-4{fill:#80b423;}.cls-5{fill:#c0ce05;}.cls-6{fill:#4a7528;}.cls-7{fill:#53b4ae;}.cls-8{fill:#0a8c32;}.cls-9{fill:#006c58;}.cls-10{fill:url(#Degradado_sin_nombre_299);}.cls-11{fill:url(#Degradado_sin_nombre_2);}.cls-12{fill:url(#Degradado_sin_nombre_2-2);}.cls-13{fill:url(#Degradado_sin_nombre_310);}.cls-14{fill:#138b31;}</style><linearGradient id="Degradado_sin_nombre_299" x1="402.79" y1="34.41" x2="472.36" y2="34.41" gradientUnits="userSpaceOnUse"><stop offset="0.01" stop-color="#288d86"/><stop offset="0.25" stop-color="#39806a"/><stop offset="0.5" stop-color="#558245"/><stop offset="0.81" stop-color="#85301d"/><stop offset="1" stop-color="#6e1112"/></linearGradient><linearGradient id="Degradado_sin_nombre_2" x1="422.73" y1="58" x2="459.83" y2="16.98" gradientUnits="userSpaceOnUse"><stop offset="0.25" stop-color="#58b392"/><stop offset="0.5" stop-color="#7eb862"/><stop offset="0.81" stop-color="#e35037"/><stop offset="1" stop-color="#de0d12"/></linearGradient><linearGradient id="Degradado_sin_nombre_2-2" x1="404.82" y1="41.81" x2="441.92" y2="0.78" xlink:href="#Degradado_sin_nombre_2"/><linearGradient id="Degradado_sin_nombre_310" x1="407.91" y1="57.92" x2="421.5" y2="57.92" gradientUnits="userSpaceOnUse"><stop offset="0.01" stop-color="#19746e"/><stop offset="0.25" stop-color="#24614e"/><stop offset="1" stop-color="#2a4a1e"/></linearGradient></defs><title>Recurso 4ldpi</title><g id="Capa_2" data-name="Capa 2"><g id="Capa_1-2" data-name="Capa 1"><path class="cls-1" d="M95.82,138.37a19,19,0,0,1,7.54,1.5,19.48,19.48,0,0,1,10.34,10.32,18.62,18.62,0,0,1,1.51,7.45,19,19,0,0,1-1.51,7.53,19.54,19.54,0,0,1-10.35,10.32,19,19,0,0,1-7.54,1.5H90v14H78.23V138.37Zm0,26.87a7.44,7.44,0,0,0,3-.6A7.93,7.93,0,0,0,101.2,163a7.82,7.82,0,0,0,1.65-2.41,7.35,7.35,0,0,0,.61-3,7.09,7.09,0,0,0-.61-2.91,7.9,7.9,0,0,0-4.09-4,7.44,7.44,0,0,0-3-.6H90v15.12Z"/><path class="cls-1" d="M146.94,138.3,159.4,191h-12l-1.44-5.87H130.46L129.09,191h-12l12.39-52.73Zm-13.69,35.11h10l-5-21.14Z"/><path class="cls-1" d="M177,191H165.26V138.37h17.58a19,19,0,0,1,7.54,1.5,19.48,19.48,0,0,1,10.34,10.32,18.62,18.62,0,0,1,1.51,7.45,18.83,18.83,0,0,1-2.12,8.85,19.31,19.31,0,0,1-5.71,6.7l10.19,17.92h-13.5L183,177h-6Zm0-25.79h5.8a7.44,7.44,0,0,0,3-.6,7.78,7.78,0,0,0,4.09-4,7.35,7.35,0,0,0,.61-3,7.09,7.09,0,0,0-.61-2.91,7.9,7.9,0,0,0-4.09-4,7.44,7.44,0,0,0-3-.6H177Z"/><path class="cls-1" d="M233.59,191l-1.65-.14a24.65,24.65,0,0,1-9.2-2.76,26.85,26.85,0,0,1-7.46-5.77,26.21,26.21,0,0,1-6.77-17.69,25.45,25.45,0,0,1,2.08-10.25,26.46,26.46,0,0,1,5.66-8.35,27.06,27.06,0,0,1,8.38-5.62,26.35,26.35,0,0,1,20.5,0,27.24,27.24,0,0,1,8.38,5.62,26.21,26.21,0,0,1,5.66,8.33,26.16,26.16,0,0,1,.9,18,29.09,29.09,0,0,1-3.26,6.9h4.44V191Zm-13.33-26.36a14.37,14.37,0,0,0,1.15,5.67,14.83,14.83,0,0,0,3.12,4.67,14.27,14.27,0,0,0,4.65,3.13,14.82,14.82,0,0,0,11.4,0,14.27,14.27,0,0,0,4.65-3.13,14.83,14.83,0,0,0,3.12-4.67,14.19,14.19,0,0,0,1.15-5.67,13.91,13.91,0,0,0-1.15-5.64,14.88,14.88,0,0,0-3.12-4.63,14.5,14.5,0,0,0-10.35-4.28,14.47,14.47,0,0,0-5.7,1.14,14.3,14.3,0,0,0-4.65,3.14,14.88,14.88,0,0,0-3.12,4.63A14.08,14.08,0,0,0,220.26,164.67Z"/><path class="cls-1" d="M288.33,191a19.3,19.3,0,0,1-7.79-1.57,20.38,20.38,0,0,1-10.66-10.64A19.29,19.29,0,0,1,268.3,171V138.37h11.75V171a8,8,0,0,0,.65,3.21,8.16,8.16,0,0,0,1.79,2.65,8.49,8.49,0,0,0,2.61,1.79,7.84,7.84,0,0,0,3.19.64,8.13,8.13,0,0,0,3.23-.64,8.55,8.55,0,0,0,2.65-1.79A8.32,8.32,0,0,0,296,174.2a8,8,0,0,0,.64-3.21V138.37h11.75V171a19.12,19.12,0,0,1-1.58,7.78,20.29,20.29,0,0,1-10.66,10.64A19.28,19.28,0,0,1,288.33,191Z"/><path class="cls-1" d="M328.33,150.12v8.67h22.36v11.75H328.33v8.74h22.36V191H316.58V138.3h11.75v.07h22.36v11.75Z"/><path class="cls-1" d="M375.76,192a20.22,20.22,0,0,1-5.17-.68,18.36,18.36,0,0,1-11.12-8.6,17.46,17.46,0,0,1-2.23-8.71h12.57a5.12,5.12,0,0,0,1,3.33,7.2,7.2,0,0,0,1.71,1.62,5.85,5.85,0,0,0,2.9.93,6.77,6.77,0,0,0,3.05-.58,4.91,4.91,0,0,0,1.68-1.07,5.9,5.9,0,0,0,1-1.25,3.25,3.25,0,0,0,.41-1.19,5.45,5.45,0,0,0,0-1.86,3.59,3.59,0,0,0-.41-1.22,4.87,4.87,0,0,0-1-1.25,6.28,6.28,0,0,0-1.68-1.11,16.13,16.13,0,0,0-1.74-.65c-.63-.19-1.28-.4-2-.64-1.24-.38-2.52-.81-3.86-1.29a21.73,21.73,0,0,1-4-1.94,15.64,15.64,0,0,1-6.95-9,15.2,15.2,0,0,1-.52-5.63,14.44,14.44,0,0,1,1.67-5.55,15.62,15.62,0,0,1,3.35-4.23,16.06,16.06,0,0,1,4.46-2.83,16.66,16.66,0,0,1,5.28-1.25,17.83,17.83,0,0,1,5.73.5,17.2,17.2,0,0,1,5.11,2,16.07,16.07,0,0,1,4,3.37,14.35,14.35,0,0,1,2.55,4.4,14.82,14.82,0,0,1,.89,5.09h-12.5a2.44,2.44,0,0,0-1.08-2.29,7.43,7.43,0,0,0-1.9-.86,6,6,0,0,1-.71-.11,3.79,3.79,0,0,0-1.26,0,4.64,4.64,0,0,0-1.45.5,2.86,2.86,0,0,0-1.19,1.26,3.08,3.08,0,0,0-.22,2.4,3.43,3.43,0,0,0,1.48,2,17.64,17.64,0,0,0,2.31,1c.84.31,1.73.61,2.68.89s1.69.5,2.56.79,1.74.62,2.63,1a17.46,17.46,0,0,1,7.65,6.31,16.68,16.68,0,0,1,0,18.41,17.39,17.39,0,0,1-7.65,6.31,18.14,18.14,0,0,1-3.93,1.25A20.27,20.27,0,0,1,375.76,192Z"/><polygon class="cls-2" points="33.45 0 92.38 52.45 41.55 79.82 33.45 0"/><polygon class="cls-3" points="121.6 22.25 33.45 0 92.38 52.45 121.6 22.25"/><polygon class="cls-4" points="0 56.83 33.45 0 41.55 79.82 0 56.83"/><polygon class="cls-5" points="9.86 114.95 0 56.83 41.55 79.82 9.86 114.95"/><polygon class="cls-6" points="85.65 133.93 9.86 114.95 41.55 79.82 85.65 133.93"/><polygon class="cls-7" points="128.66 85.23 92.38 52.45 121.6 22.25 128.66 85.23"/><polygon class="cls-8" points="41.55 79.82 92.38 52.45 85.65 133.93 41.55 79.82"/><polygon class="cls-9" points="128.66 85.23 85.65 133.93 92.38 52.45 128.66 85.23"/><path class="cls-9" d="M156.9,9.34l40.75,15.19S139.44,62,141.21,60.21,156.9,9.34,156.9,9.34Z"/><polygon class="cls-7" points="195.81 46.55 216.19 46.55 203.65 73.2 195.81 46.55"/><polygon class="cls-3" points="222.21 6.47 249.15 41.66 260.61 12.58 222.21 6.47"/><polygon class="cls-9" points="266.15 64.57 295.93 32.17 307.69 57.25 266.15 64.57"/><polygon class="cls-7" points="331.9 61.58 346.79 74.64 320.14 90.57 331.9 61.58"/><polygon class="cls-3" points="365.18 60.13 377.19 71.36 385.81 48.37 365.18 60.13"/><polygon class="cls-10" points="402.79 41.66 407.91 68.83 472.36 0 402.79 41.66"/><polygon class="cls-11" points="409.7 47.01 437.57 67 472.36 0 409.7 47.01"/><polygon class="cls-12" points="402.79 41.66 385.81 29.94 472.36 0 402.79 41.66"/><polygon class="cls-13" points="407.91 68.83 409.7 47.01 421.5 55.48 407.91 68.83"/><path class="cls-1" d="M129.38,102.4v25h-5.57V111a9.51,9.51,0,0,1-3.7.74v-5.53a3.65,3.65,0,0,0,1.43-.29,3.72,3.72,0,0,0,1.19-.8,3.93,3.93,0,0,0,.8-1.17,3.59,3.59,0,0,0,.28-1.44v-.07Z"/><path class="cls-1" d="M134.43,104.93v1.84h4.73v2.48h-4.73v1.85h4.73v2.49H132V102.43h2.48v0h4.73v2.48Z"/><path class="cls-1" d="M143.6,113.59h-2.48V102.45h3.72a4.1,4.1,0,0,1,2.9,1.2,4.33,4.33,0,0,1,.88,1.3,4,4,0,0,1,.31,1.58,4.09,4.09,0,0,1-.44,1.87,4.13,4.13,0,0,1-1.21,1.41l2.15,3.79h-2.85l-1.7-3H143.6Zm0-5.46h1.23a1.51,1.51,0,0,0,.63-.13,1.63,1.63,0,0,0,.51-.34,1.6,1.6,0,0,0,.35-.51,1.47,1.47,0,0,0,.13-.62,1.44,1.44,0,0,0-.13-.62,1.46,1.46,0,0,0-.35-.5,1.65,1.65,0,0,0-.51-.35,1.69,1.69,0,0,0-.63-.13H143.6Z"/><path class="cls-1" d="M163.51,127.26a8.51,8.51,0,0,1-1.14-.07c-.38,0-.75-.1-1.11-.17a10,10,0,0,1-1.08-.27c-.35-.11-.7-.24-1-.38s-.63-.32-.95-.49-.64-.36-1-.56a6.3,6.3,0,0,1-.86-.63c-.27-.24-.54-.49-.79-.74a8,8,0,0,1-1.37-1.63,12.82,12.82,0,0,1-1.06-1.91,15.15,15.15,0,0,1-.66-2.12,12.31,12.31,0,0,1-.2-2.25v-2.59a13.16,13.16,0,0,1,.2-2.25c.1-.37.19-.72.3-1.08a9.84,9.84,0,0,1,.36-1l.49-1a7.85,7.85,0,0,1,.57-.92,5.1,5.1,0,0,1,.63-.89c.24-.27.49-.53.74-.78a12,12,0,0,1,1.65-1.37,13.85,13.85,0,0,1,1.91-1c.34-.14.69-.26,1-.38a10,10,0,0,1,1.08-.27,10.67,10.67,0,0,1,4.5,0,9.85,9.85,0,0,1,1.07.27c.36.12.7.24,1,.38a10.41,10.41,0,0,1,1.88,1,11.19,11.19,0,0,1,1.67,1.37,10.11,10.11,0,0,1,1.36,1.67,9.76,9.76,0,0,1,1,1.87,11.46,11.46,0,0,1,.65,2.12L169,112.32a5.5,5.5,0,0,0-.31-1,8.23,8.23,0,0,0-.54-1,2.9,2.9,0,0,0-.69-.82,2.53,2.53,0,0,0-.37-.36l-.44-.32a10.29,10.29,0,0,0-1-.54,5.39,5.39,0,0,0-1.06-.31,4.75,4.75,0,0,0-2.25,0,5.5,5.5,0,0,0-1,.31,8.23,8.23,0,0,0-1,.54l-.44.32a4.59,4.59,0,0,0-.41.36,6,6,0,0,0-.68.82,4.12,4.12,0,0,0-.52,1c-.06.18-.13.35-.18.52s-.11.35-.16.53a7.52,7.52,0,0,0-.1,1.13V116a7.06,7.06,0,0,0,.1,1.16c.05.18.1.36.16.53s.12.33.18.49a4.26,4.26,0,0,0,.52,1,3.93,3.93,0,0,0,.34.44l.34.41c.13.12.27.23.41.34a3.93,3.93,0,0,0,.44.34,3.73,3.73,0,0,0,1,.51c.18.07.35.14.52.19l.53.16a6.54,6.54,0,0,0,2.25,0l.53-.16c.17,0,.35-.12.53-.19a3.73,3.73,0,0,0,1-.51,5.41,5.41,0,0,0,.81-.68,4.73,4.73,0,0,0,.38-.41,2.88,2.88,0,0,0,.31-.44,3,3,0,0,0,.29-.44l.25-.52a2.84,2.84,0,0,0,.17-.49c0-.17.09-.35.14-.53l5.46,1.09a11.15,11.15,0,0,1-1.68,4c-.2.29-.42.58-.64.85s-.47.53-.72.78-.51.5-.78.74a5.51,5.51,0,0,1-.89.63,10.74,10.74,0,0,1-.92.56c-.32.17-.64.34-1,.49s-.68.27-1,.38a9.85,9.85,0,0,1-1.07.27c-.39.07-.76.13-1.13.17A8.22,8.22,0,0,1,163.51,127.26Z"/><path class="cls-1" d="M191.22,102.16a12.17,12.17,0,0,1,4.88,1,12.9,12.9,0,0,1,4,2.68,12.61,12.61,0,0,1,2.69,4,12.6,12.6,0,0,1,0,9.79,12.61,12.61,0,0,1-2.69,4,12.9,12.9,0,0,1-4,2.68,12.52,12.52,0,0,1-9.76,0,12.9,12.9,0,0,1-4-2.68,12.61,12.61,0,0,1-2.69-4,12.6,12.6,0,0,1,0-9.79,12.61,12.61,0,0,1,2.69-4,12.9,12.9,0,0,1,4-2.68A12.17,12.17,0,0,1,191.22,102.16Zm0,19.47a6.94,6.94,0,0,0,4.93-2,7.31,7.31,0,0,0,1.48-2.22,6.69,6.69,0,0,0,.55-2.7,6.53,6.53,0,0,0-.55-2.68,7.15,7.15,0,0,0-1.48-2.21,6.83,6.83,0,0,0-2.22-1.49,7,7,0,0,0-5.42,0,6.94,6.94,0,0,0-2.22,1.49,7.15,7.15,0,0,0-1.48,2.21,6.69,6.69,0,0,0-.55,2.68,6.86,6.86,0,0,0,.55,2.7,7.31,7.31,0,0,0,1.48,2.22,6.94,6.94,0,0,0,4.93,2Z"/><path class="cls-1" d="M222.18,127.23l-8-14.33v14.33h-5.6V102.16h6l8,14.32V102.16h5.59v25.07Z"/><path class="cls-1" d="M255.72,116.9a5.93,5.93,0,0,1-.14,1.34,8,8,0,0,1-.27,1.07c-.11.36-.24.71-.37,1a9.4,9.4,0,0,1-.48,1c-.18.32-.38.64-.58,1a6.3,6.3,0,0,1-.63.86c-.24.27-.49.53-.74.78s-.51.49-.78.72-.56.44-.85.65-.63.39-.94.56a7.85,7.85,0,0,1-1,.46,7.29,7.29,0,0,1-1,.4c-.34.1-.7.2-1.09.29a12.81,12.81,0,0,1-2.25.2,13.16,13.16,0,0,1-2.25-.2l-1.07-.29a7.51,7.51,0,0,1-1-.36c-.34-.16-.67-.32-1-.49a8.77,8.77,0,0,1-.92-.57,11.13,11.13,0,0,1-1.67-1.36,11.85,11.85,0,0,1-1.36-1.64,12.89,12.89,0,0,1-1-1.91c-.13-.34-.26-.69-.37-1a8,8,0,0,1-.28-1.07,7.13,7.13,0,0,1-.18-1.11,10.87,10.87,0,0,1-.05-1.14v-2.6a10.86,10.86,0,0,1,.23-2.25,8,8,0,0,1,.28-1.07c.11-.35.24-.7.37-1a12.89,12.89,0,0,1,1-1.91c.2-.3.42-.58.64-.85s.47-.54.72-.79a11.13,11.13,0,0,1,1.67-1.36,8.49,8.49,0,0,1,1.91-1,6.44,6.44,0,0,1,1-.4c.35-.1.71-.18,1.07-.25a10.67,10.67,0,0,1,4.5,0,8.71,8.71,0,0,1,2.12.65,7.85,7.85,0,0,1,1,.46c.31.17.62.35.94.56a10.61,10.61,0,0,1,.85.65,10.41,10.41,0,0,1,.78.71l-3.92,4a5.25,5.25,0,0,0-.85-.72,4.71,4.71,0,0,0-1-.51,3.53,3.53,0,0,0-.49-.17l-.53-.14a4.88,4.88,0,0,0-2.28,0,4.69,4.69,0,0,0-1.06.31l-.48.22a4.09,4.09,0,0,0-.48.29,4.78,4.78,0,0,1-.42.34,2.35,2.35,0,0,0-.39.38,2.09,2.09,0,0,0-.36.37l-.33.45a4.41,4.41,0,0,0-.51,1,3.87,3.87,0,0,0-.34,1.06,6.29,6.29,0,0,0-.1,1.12V116a5.55,5.55,0,0,0,.1,1.12,3.87,3.87,0,0,0,.34,1.06,4.19,4.19,0,0,0,.51,1,5.39,5.39,0,0,0,.69.86,4.75,4.75,0,0,0,.39.34c.15.11.29.23.42.34a4.09,4.09,0,0,0,.48.29l.48.22a4.69,4.69,0,0,0,1.06.31,4.88,4.88,0,0,0,2.28,0l.53-.14a2.58,2.58,0,0,0,.49-.17,4.71,4.71,0,0,0,1-.51c.16-.11.31-.23.44-.34l.41-.34.34-.41a5.3,5.3,0,0,0,.34-.45,5.92,5.92,0,0,0,.52-1l.12-.34c0-.11.07-.23.11-.34H244.6v-5.6h11.15Z"/><path class="cls-1" d="M266.31,127.23h-5.6V102.16h8.38a8.94,8.94,0,0,1,3.58.72,9.19,9.19,0,0,1,4.92,4.91,9.2,9.2,0,0,1-.29,7.76,9.32,9.32,0,0,1-2.72,3.19l4.86,8.52H273l-3.83-6.72h-2.87Zm0-12.28h2.76a3.52,3.52,0,0,0,1.41-.29,3.9,3.9,0,0,0,1.17-.77,3.83,3.83,0,0,0,.78-1.15,3.52,3.52,0,0,0,.29-1.41,3.38,3.38,0,0,0-.29-1.38,3.69,3.69,0,0,0-1.95-1.91,3.52,3.52,0,0,0-1.41-.29h-2.76Z"/><path class="cls-1" d="M289.68,107.75v4.13h10.64v5.59H289.68v4.16h10.64v5.6H284.09v-25.1h5.59v0h10.64v5.59Z"/><path class="cls-1" d="M314.77,127.79a10.65,10.65,0,0,1-2.63-.33,9.11,9.11,0,0,1-2.48-1,9,9,0,0,1-3.18-3.16,8.25,8.25,0,0,1-1.14-4.25h6.4a2.39,2.39,0,0,0,.49,1.62,3.46,3.46,0,0,0,.87.79,3,3,0,0,0,1.48.45,3.49,3.49,0,0,0,1.55-.28,2.51,2.51,0,0,0,.85-.52,2.85,2.85,0,0,0,.49-.61,1.41,1.41,0,0,0,.21-.58,2.84,2.84,0,0,0,0-.45,3,3,0,0,0,0-.46,1.56,1.56,0,0,0-.21-.59,2.27,2.27,0,0,0-.49-.61,3.37,3.37,0,0,0-.85-.55,9.24,9.24,0,0,0-.89-.31l-1-.31c-.63-.19-1.29-.4-2-.63a12.09,12.09,0,0,1-2-1,7.8,7.8,0,0,1-2.23-1.92,7.48,7.48,0,0,1-1.3-2.48,7.06,7.06,0,0,1-.27-2.75,6.91,6.91,0,0,1,.85-2.71,7.93,7.93,0,0,1,1.71-2.06,8.22,8.22,0,0,1,2.27-1.38,8.67,8.67,0,0,1,2.68-.61,9.7,9.7,0,0,1,2.92.24,9.13,9.13,0,0,1,2.6,1,7.89,7.89,0,0,1,2,1.64,6.87,6.87,0,0,1,1.3,2.15,7,7,0,0,1,.45,2.49h-6.36a1.19,1.19,0,0,0-.55-1.12,4,4,0,0,0-1-.42L315,107a2.35,2.35,0,0,0-.65,0,2.59,2.59,0,0,0-.74.25,1.41,1.41,0,0,0-.6.61,1.49,1.49,0,0,0-.12,1.17,1.68,1.68,0,0,0,.76,1,8.41,8.41,0,0,0,1.17.51c.43.15.89.3,1.37.44s.86.24,1.3.38.89.31,1.34.49a8.81,8.81,0,0,1,3.89,3.08,7.85,7.85,0,0,1,0,9,8.81,8.81,0,0,1-3.89,3.08,9.6,9.6,0,0,1-2,.61A10.83,10.83,0,0,1,314.77,127.79Z"/><path class="cls-1" d="M341.05,102.16a12.13,12.13,0,0,1,4.88,1,12.9,12.9,0,0,1,4,2.68,12.28,12.28,0,0,1,2.69,4,12.6,12.6,0,0,1,0,9.79,12.28,12.28,0,0,1-2.69,4,12.9,12.9,0,0,1-4,2.68,12.5,12.5,0,0,1-9.75,0,12.67,12.67,0,0,1-4-2.68,12.47,12.47,0,0,1-2.7-4,12.6,12.6,0,0,1,0-9.79,12.47,12.47,0,0,1,2.7-4,12.67,12.67,0,0,1,4-2.68A12.08,12.08,0,0,1,341.05,102.16Zm0,19.47a6.86,6.86,0,0,0,2.71-.54A6.72,6.72,0,0,0,346,119.6a7.34,7.34,0,0,0,1.49-2.22,6.85,6.85,0,0,0,.54-2.7,6.68,6.68,0,0,0-.54-2.68,7.17,7.17,0,0,0-1.49-2.21,7,7,0,0,0-7.64-1.49,6.94,6.94,0,0,0-2.22,1.49,7.33,7.33,0,0,0-1.48,2.21,6.68,6.68,0,0,0-.54,2.68,6.85,6.85,0,0,0,.54,2.7,7.5,7.5,0,0,0,1.48,2.22,6.94,6.94,0,0,0,4.93,2Z"/><rect class="cls-3" x="78.38" y="199.36" width="315.61" height="44.68"/><path class="cls-1" d="M127.83,236.7a8.49,8.49,0,0,1-2.23-.3,7.63,7.63,0,0,1-2.1-1,7.85,7.85,0,0,1-2.7-2.91,8,8,0,0,1-1-3.9h5.43a2.34,2.34,0,0,0,.42,1.49,2.92,2.92,0,0,0,.74.73,2.45,2.45,0,0,0,1.25.41A2.9,2.9,0,0,0,129,231a2,2,0,0,0,.72-.49,2.82,2.82,0,0,0,.42-.56,1.45,1.45,0,0,0,.18-.53,2.89,2.89,0,0,0,0-.83,1.54,1.54,0,0,0-.18-.55,2.34,2.34,0,0,0-.42-.56,2.76,2.76,0,0,0-.72-.5,7.51,7.51,0,0,0-.76-.29l-.85-.29c-.53-.17-1.09-.36-1.67-.58A9.28,9.28,0,0,1,124,225a7,7,0,0,1-1.9-1.77,7.31,7.31,0,0,1-1.11-2.28,7.11,7.11,0,0,1-.22-2.52,6.49,6.49,0,0,1,.72-2.49,7.2,7.2,0,0,1,1.45-1.9,6.86,6.86,0,0,1,4.21-1.83,7.47,7.47,0,0,1,2.47.22,7.37,7.37,0,0,1,2.21.92,7.08,7.08,0,0,1,1.71,1.51,6.62,6.62,0,0,1,1.1,2,6.9,6.9,0,0,1,.38,2.28h-5.4a1.11,1.11,0,0,0-.47-1,3.49,3.49,0,0,0-.82-.39,1.42,1.42,0,0,1-.3-.05,1.68,1.68,0,0,0-.55,0,2,2,0,0,0-.62.23,1.24,1.24,0,0,0-.52.56,1.44,1.44,0,0,0-.09,1.08,1.5,1.5,0,0,0,.64.88,7.15,7.15,0,0,0,1,.47c.36.14.74.27,1.15.4s.73.22,1.11.35.75.28,1.14.45a7.6,7.6,0,0,1,3.3,2.83,7.71,7.71,0,0,1,0,8.26,7.58,7.58,0,0,1-3.3,2.82,7.73,7.73,0,0,1-1.7.57A9.33,9.33,0,0,1,127.83,236.7Z"/><path class="cls-1" d="M149.69,236.25a8.67,8.67,0,0,1-3.49-.7,9.5,9.5,0,0,1-2.85-1.93,9.2,9.2,0,0,1-1.93-2.85,8.63,8.63,0,0,1-.71-3.48V212.64H146v14.62a3.67,3.67,0,0,0,1.09,2.63,3.94,3.94,0,0,0,1.18.81,3.54,3.54,0,0,0,1.43.28,3.66,3.66,0,0,0,1.44-.28,3.75,3.75,0,0,0,1.19-.81,3.68,3.68,0,0,0,.8-1.18,3.51,3.51,0,0,0,.29-1.45V212.64h5.27v14.65a8.46,8.46,0,0,1-.71,3.48,9,9,0,0,1-1.93,2.85,9.26,9.26,0,0,1-2.85,1.93A8.64,8.64,0,0,1,149.69,236.25Z"/><path class="cls-1" d="M172.4,212.64a11.45,11.45,0,0,1,4.59.93,11.94,11.94,0,0,1,3.76,2.54,12.08,12.08,0,0,1,2.54,3.74,11.77,11.77,0,0,1,0,9.17,11.93,11.93,0,0,1-6.3,6.3,11.45,11.45,0,0,1-4.59.93h-6.62V212.64Zm0,18.34a6.45,6.45,0,0,0,2.55-.51,6.42,6.42,0,0,0,3.49-3.48,6.44,6.44,0,0,0,.51-2.54,6.37,6.37,0,0,0-.51-2.54,6.92,6.92,0,0,0-1.4-2.08,6.51,6.51,0,0,0-4.64-1.92h-1.35V231Z"/><path class="cls-1" d="M202.64,212.61l5.59,23.64h-5.4l-.64-2.63h-6.94l-.61,2.63h-5.4l5.56-23.64Zm-6.14,15.74H201l-2.25-9.48Z"/><path class="cls-1" d="M237.61,212.61v23.64h-5.27V222.5l-3.79,13.75h-5.14l-3.82-14v14h-5.27V212.61l8.06,0,3.6,13.11,3.63-13.11Z"/><path class="cls-1" d="M260.16,217.88H250.11v3.88h10.05V227H250.11V231h10.05v5.27H244.84V212.61h15.32Zm-11.92-7.23,10-3-1.55-5-10,3Z"/><path class="cls-1" d="M272.59,236.25h-5.27V212.64h7.88a8.58,8.58,0,0,1,6.15,2.54,8.59,8.59,0,0,1,1.87,2.76,8.67,8.67,0,0,1-.27,7.31,8.68,8.68,0,0,1-2.57,3l4.58,8H278.9L275.29,230h-2.7Zm0-11.56h2.6a3.29,3.29,0,0,0,1.33-.27,3.61,3.61,0,0,0,1.1-.74,3.27,3.27,0,0,0,.73-1.08,3.1,3.1,0,0,0,.28-1.32,3,3,0,0,0-.28-1.3,3.45,3.45,0,0,0-.73-1.07,3.58,3.58,0,0,0-1.1-.73,3.29,3.29,0,0,0-1.33-.27h-2.6Z"/><path class="cls-1" d="M291.18,236.25V212.61h5.27v23.64Z"/><path class="cls-1" d="M313.8,236.28a9.77,9.77,0,0,1-1.08-.06c-.35,0-.7-.1-1-.16a7.13,7.13,0,0,1-1-.26c-.33-.1-.66-.22-1-.35l-.9-.47c-.3-.16-.6-.33-.9-.53a6.42,6.42,0,0,1-.81-.59l-.75-.69a8,8,0,0,1-1.29-1.54,12.25,12.25,0,0,1-1-1.8,15.25,15.25,0,0,1-.62-2,11.85,11.85,0,0,1-.19-2.12v-2.44a12.75,12.75,0,0,1,.19-2.12c.09-.34.18-.68.28-1s.21-.66.34-1,.31-.6.47-.9a9.61,9.61,0,0,1,.53-.87,4.87,4.87,0,0,1,.6-.83c.22-.26.46-.5.69-.74a12,12,0,0,1,1.56-1.29,12.83,12.83,0,0,1,1.8-1c.32-.13.65-.25,1-.35a7.13,7.13,0,0,1,1-.26,10.1,10.1,0,0,1,4.24,0,7.13,7.13,0,0,1,1,.26,10.33,10.33,0,0,1,1,.35,9.23,9.23,0,0,1,1.77,1,10.48,10.48,0,0,1,1.57,1.29,10.37,10.37,0,0,1,1.29,1.57,9.88,9.88,0,0,1,1,1.77,10.1,10.1,0,0,1,.61,2L319,222.21a4.89,4.89,0,0,0-.29-1,7.22,7.22,0,0,0-.51-.9,2.55,2.55,0,0,0-.64-.77,2.31,2.31,0,0,0-.36-.34l-.41-.31a9,9,0,0,0-.9-.51,5,5,0,0,0-1-.29,4.47,4.47,0,0,0-2.12,0,5.17,5.17,0,0,0-1,.29,7.82,7.82,0,0,0-.89.51l-.42.31a4,4,0,0,0-.39.34,4.93,4.93,0,0,0-.64.77,3.59,3.59,0,0,0-.48.9c-.07.17-.13.33-.18.49s-.1.33-.14.5a5.66,5.66,0,0,0-.1,1.06v2.44a5.56,5.56,0,0,0,.1,1.1c0,.17.09.33.14.5a3.66,3.66,0,0,0,.18.46,4.39,4.39,0,0,0,.48.9c.11.15.21.29.32.42l.32.38.39.33.42.32a3.69,3.69,0,0,0,.89.48l.5.17a4.13,4.13,0,0,0,.5.15,5.81,5.81,0,0,0,2.12,0,4.13,4.13,0,0,0,.5-.15l.5-.17a3.94,3.94,0,0,0,.9-.48,5.43,5.43,0,0,0,.77-.65c.13-.13.24-.25.35-.38a3.13,3.13,0,0,0,.29-.42,1.88,1.88,0,0,0,.27-.42q.12-.23.24-.48a3.61,3.61,0,0,0,.17-.46l.12-.5,5.14,1a8.16,8.16,0,0,1-.61,2,8.76,8.76,0,0,1-1,1.8c-.19.27-.4.54-.61.8s-.44.5-.68.74-.48.46-.73.69a5.51,5.51,0,0,1-.84.59,7.77,7.77,0,0,1-.87.53l-.9.47a10.33,10.33,0,0,1-1,.35,7.13,7.13,0,0,1-1,.26c-.36.06-.72.12-1.06.16A9,9,0,0,1,313.8,236.28Z"/><path class="cls-1" d="M342.53,212.61l5.59,23.64h-5.39l-.65-2.63h-6.94l-.61,2.63h-5.4l5.56-23.64Zm-6.13,15.74h4.46l-2.25-9.48Z"/><path class="cls-4" d="M98.33,266.86a4.85,4.85,0,0,1-1.3-.18,4.51,4.51,0,0,1-1.23-.55,4.67,4.67,0,0,1-2.14-4h3.17a1.35,1.35,0,0,0,.25.87,1.84,1.84,0,0,0,.43.42,1.38,1.38,0,0,0,.73.24,1.74,1.74,0,0,0,.77-.15,1.34,1.34,0,0,0,.42-.28,1.44,1.44,0,0,0,.25-.33.94.94,0,0,0,.1-.31c0-.1,0-.18,0-.24s0-.14,0-.24a1.07,1.07,0,0,0-.1-.32,1.44,1.44,0,0,0-.25-.33,1.81,1.81,0,0,0-.42-.29l-.44-.17-.5-.16-1-.34a5.33,5.33,0,0,1-1-.5,4,4,0,0,1-1.1-1,4.11,4.11,0,0,1-.65-1.33,4,4,0,0,1-.13-1.47,3.83,3.83,0,0,1,.42-1.45,4.05,4.05,0,0,1,2-1.84,3.93,3.93,0,0,1,1.33-.32,4.23,4.23,0,0,1,1.45.13,4.33,4.33,0,0,1,1.29.53,4,4,0,0,1,1,.88,3.72,3.72,0,0,1,.65,1.15,3.89,3.89,0,0,1,.22,1.32H99.37a.62.62,0,0,0-.28-.59,1.82,1.82,0,0,0-.47-.23l-.18,0a.86.86,0,0,0-.32,0,1.49,1.49,0,0,0-.37.13.83.83,0,0,0-.35,1,.84.84,0,0,0,.37.51,4.43,4.43,0,0,0,.58.27l.68.24.64.2c.22.08.44.16.67.26a4.51,4.51,0,0,1,1.93,1.65,4.43,4.43,0,0,1-1.93,6.45,4.61,4.61,0,0,1-1,.33A5.87,5.87,0,0,1,98.33,266.86Z"/><path class="cls-4" d="M115.54,266.6l-.54-1.67h-4.33l-.57,1.67h-3.36l4.69-13.72h3l4.44,13.72Zm-3.79-4.83H114l-1.09-3.32Z"/><path class="cls-4" d="M131.63,266.6h-8.2V252.86h3.17v10.58h5Z"/><path class="cls-4" d="M143.2,252.82V256h-2.64V266.6h-3.17V256h-2.63v-3.16Z"/><path class="cls-4" d="M155,266.6l-.54-1.67h-4.34l-.56,1.67h-3.36l4.69-13.72h3l4.45,13.72Zm-3.79-4.83h2.23l-1.08-3.32Z"/><path class="cls-6" d="M171.64,261.33l-9,0v-3.16l9,0Z"/><path class="cls-14" d="M184.68,266.6l-.54-1.67h-4.33l-.57,1.67h-3.35l4.69-13.72h3L188,266.6Zm-3.79-4.83h2.24L182,258.45Z"/><path class="cls-14" d="M196.74,263.05l-.49.05-.51,0v3.46h-3.17V252.93h3.17a6.2,6.2,0,0,1,4,1.53,5.16,5.16,0,0,1,1.22,1.61,4.5,4.5,0,0,1,.44,2,4.56,4.56,0,0,1-.47,2,4.93,4.93,0,0,1-1.31,1.64l3,4.89H199Zm-1-3.09a3.14,3.14,0,0,0,1-.18,2.59,2.59,0,0,0,.81-.42,1.85,1.85,0,0,0,.54-.61,1.46,1.46,0,0,0,.2-.73,1.4,1.4,0,0,0-.2-.73,1.92,1.92,0,0,0-.54-.6,2.82,2.82,0,0,0-.81-.42,3.14,3.14,0,0,0-1-.18Z"/><path class="cls-14" d="M218.63,258.91v7.69h-3.19v-.34a5.79,5.79,0,0,1-1.07.27,6.89,6.89,0,0,1-1.1.09,7,7,0,0,1-2.61-.51,6.86,6.86,0,0,1-2.29-1.51,6.73,6.73,0,0,1-1.51-2.27,7,7,0,0,1,0-5.19,6.58,6.58,0,0,1,1.51-2.28,6.74,6.74,0,0,1,2.29-1.52,7.06,7.06,0,0,1,5.22,0,6.61,6.61,0,0,1,2.28,1.52l-2.25,2.24a3.56,3.56,0,0,0-1.23-.81,3.92,3.92,0,0,0-1.41-.27,3.84,3.84,0,0,0-1.41.27,3.69,3.69,0,0,0-1.24.81,3.74,3.74,0,0,0-.82,1.23,3.69,3.69,0,0,0-.28,1.41,3.64,3.64,0,0,0,.28,1.4,3.74,3.74,0,0,0,.82,1.23,3.56,3.56,0,0,0,1.1.76,3.78,3.78,0,0,0,1.26.32,4,4,0,0,0,1.28-.12,3.49,3.49,0,0,0,1.18-.57v-.69h-2.75v-3.16Z"/><path class="cls-14" d="M232.92,256h-5.66v2.08h4.59v3.16h-4.59v2.17h5.66v3.16h-8.83V252.89h8.83Z"/><path class="cls-14" d="M246.43,252.88h3.17V266.6h-3.44l-4.5-8v8h-3.17V252.91h3.45l4.49,8Z"/><path class="cls-14" d="M262.72,252.82V256h-2.65V266.6H256.9V256h-2.62v-3.16Z"/><path class="cls-14" d="M270.65,266.6h-3.17V252.86h3.17Z"/><path class="cls-14" d="M284.41,252.88h3.17V266.6h-3.43l-4.51-8v8h-3.17V252.91h3.46l4.48,8Z"/><path class="cls-14" d="M300.88,266.6l-.55-1.67H296l-.56,1.67h-3.36l4.69-13.72h3l4.44,13.72Zm-3.79-4.83h2.23l-1.09-3.32Z"/><path class="cls-9" d="M317.56,261.33l-9,0v-3.16l9,0Z"/><path class="cls-3" d="M331.77,263.44v3.16h-9.21v-3.41c.91-.55,1.74-1.11,2.49-1.67a19.6,19.6,0,0,0,1.9-1.62,9.92,9.92,0,0,0,1.22-1.41,2,2,0,0,0,.43-1,1.38,1.38,0,0,0-.41-1,1.44,1.44,0,0,0-2,0,1.42,1.42,0,0,0-.41,1h-3.19a4.27,4.27,0,0,1,.37-1.78,4.6,4.6,0,0,1,1-1.46,4.72,4.72,0,0,1,1.46-1,4.52,4.52,0,0,1,1.8-.36,4.42,4.42,0,0,1,1.78.36,4.68,4.68,0,0,1,2.45,2.45,4.42,4.42,0,0,1,.36,1.78q0,2.71-4,6Z"/><path class="cls-3" d="M343.31,252.86a6.68,6.68,0,0,1,2.68.54,6.92,6.92,0,0,1,3.68,3.64,6.9,6.9,0,0,1,0,5.35,7.07,7.07,0,0,1-1.48,2.18A7.44,7.44,0,0,1,346,266a6.9,6.9,0,0,1-5.35,0,7.26,7.26,0,0,1-2.19-1.47,7,7,0,0,1-1.47-2.18,6.9,6.9,0,0,1,0-5.35,7,7,0,0,1,1.47-2.17,6.91,6.91,0,0,1,2.19-1.47A6.67,6.67,0,0,1,343.31,252.86Zm0,10.56a3.7,3.7,0,0,0,3.43-5.14,3.85,3.85,0,0,0-.8-1.18,3.65,3.65,0,0,0-1.18-.79,3.75,3.75,0,0,0-2.89,0,3.7,3.7,0,0,0-2,4.85,3.53,3.53,0,0,0,.8,1.17,3.67,3.67,0,0,0,2.62,1.09Z"/><path class="cls-3" d="M357.94,252.84h3.17V266.6h-3.17v-8.75L357,259l-2.46-2Z"/><path class="cls-3" d="M370.73,262.76a4.89,4.89,0,0,1-1.76-.51,5.3,5.3,0,0,1-1.44-1.07,5.07,5.07,0,0,1-.95-1.52,5,5,0,0,1,0-3.77,5.25,5.25,0,0,1,1.07-1.58,5.15,5.15,0,0,1,1.59-1.06,5,5,0,0,1,3.87,0,5.22,5.22,0,0,1,1.58,1.06,5.07,5.07,0,0,1,1.07,1.58,4.87,4.87,0,0,1,.39,1.94,4.93,4.93,0,0,1-.47,2.13l-3.37,6.64H368.8Zm.49-6.74a1.62,1.62,0,0,0-.7.14,1.79,1.79,0,0,0-.59.39,1.91,1.91,0,0,0-.39.58,1.82,1.82,0,0,0,0,1.4,1.75,1.75,0,0,0,.39.57,1.93,1.93,0,0,0,.59.38,1.62,1.62,0,0,0,.7.14,1.74,1.74,0,0,0,1.28-.52,1.72,1.72,0,0,0,.52-1.27,1.82,1.82,0,0,0-.14-.7,1.88,1.88,0,0,0-.38-.58,1.74,1.74,0,0,0-.58-.39A1.65,1.65,0,0,0,371.22,256Z"/></g></g></svg>